<?xml version="1.0" encoding="UTF-8"?>
<svg id="Warstwa_2" data-name="Warstwa 2" xmlns="http://www.w3.org/2000/svg" viewBox="0 0 1920 642.19">
  <defs>
    <style>
      .cls-1 {
        fill: #fff;
      }

      .cls-2 {
        fill: #001b60;
      }

      .cls-3 {
        fill: #3abff8;
      }
    </style>
  </defs>
  <g id="Warstwa_1-2" data-name="Warstwa 1">
    <rect class="cls-3" width="1920" height="642.19"/>
    <circle class="cls-2" cx="1585.82" cy="316.37" r="216.67"/>
    <path class="cls-1" d="m1920,0v41.58l-186.86,91.71-189.17,92.84c-15.36,7.59-26.05,16.05-32,25.3-6.05,9.35-6.78,18.64-2.22,27.93l.09.19c4.26,8.68,10.05,14.02,17.3,15.99,7.29,1.94,15.54,2.01,24.79.16,7.45-1.47,15.36-3.28,23.53-5.4,1.83-.42,3.67-.9,5.49-1.42.13-.02.21-.06.34-.08,11.37-3.12,22.92-5.76,34.64-7.88,11.74-2.17,23.2-2.6,34.44-1.36,11.22,1.29,21.72,5.45,31.49,12.47,9.76,7.07,18.39,18.2,25.88,33.46l.17.35c12.78,26.04,13.69,50.63,2.75,73.77-9.77,20.62-28.18,38.45-55.31,53.46l-193.49,94.97-191.83,94.15h-123.62l291.46-143.04,193.49-94.96c11.26-6.71,19.39-14.01,24.39-21.94,6.41-10.14,7.11-20.36,2.06-30.64l-.1-.19c-3.83-7.81-9.09-12.64-15.69-14.55-6.61-1.91-14.18-2.02-22.65-.32-2.96.61-6.04,1.27-9.12,2.02-3.22.77-6.48,1.62-9.85,2.56-2.6.76-5.25,1.53-7.95,2.39-11.33,3.57-22.99,6.79-34.94,9.68-11.97,2.85-23.8,3.88-35.4,3.06-11.64-.81-22.61-4.77-32.94-11.86-10.34-7.11-19.49-18.83-27.53-35.2l-.1-.19c-12.94-26.38-14.29-51.06-4.04-73.99,10.2-22.92,31.12-42.11,62.66-57.64l-.05.17,189.17-92.84L1881.87,0h38.13Z"/>
    <polygon class="cls-1" points="458.91 0 0 225.23 0 164.57 335.31 0 458.91 0"/>
    <polygon class="cls-1" points="1920 487.09 1920 547.76 1727.59 642.19 1603.97 642.19 1920 487.09"/>
  </g>
</svg>