<?xml version="1.0" encoding="UTF-8"?>
<svg id="Warstwa_2" data-name="Warstwa 2" xmlns="http://www.w3.org/2000/svg" viewBox="0 0 1080 1920">
  <defs>
    <style>
      .cls-1 {
        fill: #fff;
      }

      .cls-2 {
        fill: #001b60;
      }

      .cls-3 {
        fill: #3abff8;
      }
    </style>
  </defs>
  <g id="Warstwa_3" data-name="Warstwa 3">
    <path class="cls-3" d="m1038.73,0l-196.3,96.34-15.2,7.46-157.38,77.24-53.84,26.43-135.33,66.42.05-.18c-31.54,15.53-52.45,34.73-62.66,57.65-10.25,22.93-8.9,47.61,4.04,73.99l.1.19c8.03,16.38,17.19,28.09,27.53,35.2,10.32,7.08,21.3,11.05,32.94,11.86,11.6.83,23.43-.2,35.4-3.06,11.95-2.89,23.6-6.1,34.94-9.68,2.7-.85,5.34-1.63,7.95-2.39,3.36-.94,6.63-1.79,9.84-2.56,3.08-.76,6.16-1.42,9.12-2.02,8.47-1.7,16.04-1.59,22.65.32,6.6,1.91,11.86,6.74,15.69,14.55l.09.19c5.05,10.28,4.35,20.5-2.06,30.64-4.99,7.93-13.13,15.23-24.38,21.94l-175.06,85.91-18.44,9.05-191.84,94.15-99.62,48.89L0,791.02V0h1038.73Z"/>
    <path class="cls-3" d="m1080,40.04v1879.96H0V851.7l230.58-113.17,191.83-94.14,54.05-26.53,139.45-68.44c27.12-15.01,45.54-32.84,55.31-53.46,10.95-23.14,10.03-47.74-2.75-73.78l-.17-.35c-7.49-15.26-16.12-26.39-25.88-33.46-9.77-7.01-20.27-11.17-31.49-12.47-11.24-1.24-22.7-.81-34.44,1.36-11.72,2.12-23.27,4.76-34.64,7.88-.13.02-.21.06-.34.08-1.83.51-3.67,1-5.49,1.42-8.17,2.11-16.08,3.92-23.53,5.4-9.26,1.85-17.5,1.78-24.79-.16-7.25-1.97-13.04-7.31-17.3-15.99l-.09-.19c-4.56-9.29-3.83-18.59,2.22-27.93,5.94-9.25,16.63-17.71,31.99-25.3l170.87-83.85,18.31-8.99,157.37-77.24,29.49-14.47,199.44-97.88Z"/>
    <circle class="cls-2" cx="546.38" cy="412.71" r="216.67"/>
    <polygon class="cls-1" points="574.06 0 0 281.74 0 221.06 450.42 0 574.06 0"/>
    <path class="cls-1" d="m1080,0v40.04l-199.44,97.88-29.49,14.47-157.37,77.24-18.31,8.99-170.87,83.85c-15.36,7.59-26.05,16.05-31.99,25.3-6.05,9.34-6.78,18.64-2.22,27.93l.09.19c4.26,8.68,10.05,14.02,17.3,15.99,7.29,1.94,15.53,2.01,24.79.16,7.45-1.48,15.36-3.29,23.53-5.4,1.82-.42,3.66-.91,5.49-1.42.13-.02.21-.06.34-.08,11.37-3.12,22.92-5.76,34.64-7.88,11.74-2.17,23.2-2.6,34.44-1.36,11.22,1.3,21.72,5.46,31.49,12.47,9.76,7.07,18.39,18.2,25.88,33.46l.17.35c12.78,26.04,13.7,50.64,2.75,73.78-9.77,20.62-28.19,38.45-55.31,53.46l-139.45,68.44-54.05,26.53-191.83,94.14L0,851.7v-60.68l106.96-52.49,99.62-48.89,191.84-94.15,18.44-9.05,175.06-85.91c11.25-6.71,19.39-14.01,24.38-21.94,6.41-10.14,7.11-20.36,2.06-30.64l-.09-.19c-3.83-7.81-9.09-12.64-15.69-14.55-6.61-1.91-14.18-2.02-22.65-.32-2.96.6-6.04,1.26-9.12,2.02-3.21.77-6.48,1.62-9.84,2.56-2.61.76-5.25,1.54-7.95,2.39-11.34,3.58-22.99,6.79-34.94,9.68-11.97,2.86-23.8,3.89-35.4,3.06-11.64-.81-22.62-4.78-32.94-11.86-10.34-7.11-19.5-18.82-27.53-35.2l-.1-.19c-12.94-26.38-14.29-51.06-4.04-73.99,10.21-22.92,31.12-42.12,62.66-57.65l-.05.18,135.33-66.42,53.84-26.43,157.38-77.24,15.2-7.46L1038.73,0h41.27Z"/>
    <polygon class="cls-1" points="1080 40.04 1080 0 1038.73 0 1080 40.04"/>
    <polygon class="cls-1" points="1080 1471.59 1080 1532.27 289.97 1920 166.33 1920 1080 1471.59"/>
  </g>
</svg>