<?xml version="1.0" encoding="UTF-8"?>
<svg id="Warstwa_2" data-name="Warstwa 2" xmlns="http://www.w3.org/2000/svg" viewBox="0 0 345.27 118">
  <defs>
    <style>
      .cls-1 {
        fill: #4b6bfb;
      }
    </style>
  </defs>
  <g id="Warstwa_1-2" data-name="Warstwa 1">
    <path d="M129.06,112.66V41.37h13.38V112.66h-13.38Zm25.15-19.87c-2.96,0-5.52-.76-7.67-2.27s-3.74-3.65-4.79-6.42l.68-11.57c0,1.66,.29,3.08,.88,4.25s1.44,2.07,2.56,2.69c1.12,.62,2.48,.93,4.08,.93,2.51,0,4.45-.83,5.83-2.49,1.38-1.66,2.08-4,2.08-7.03v-8.06c0-3.09-.69-5.49-2.08-7.2-1.38-1.71-3.33-2.56-5.83-2.56-1.6,0-2.95,.32-4.08,.95s-1.98,1.55-2.56,2.76c-.59,1.2-.88,2.67-.88,4.39l-1.03-11.23c1.37-2.96,3.17-5.25,5.4-6.86,2.23-1.61,4.7-2.42,7.4-2.42,5.44,0,9.64,1.93,12.6,5.79,2.96,3.86,4.44,9.3,4.44,16.33v8.11c0,6.97-1.48,12.36-4.44,16.19-2.96,3.83-7.16,5.74-12.6,5.74Z"/>
    <path d="M203.86,92.79c-6.97,0-12.35-1.93-16.16-5.79s-5.71-9.29-5.71-16.28v-8.25c0-6.93,1.9-12.3,5.71-16.11s9.2-5.71,16.16-5.71,12.35,1.9,16.16,5.71,5.71,9.18,5.71,16.11v8.4c0,6.97-1.9,12.36-5.71,16.19-3.81,3.83-9.2,5.74-16.16,5.74Zm-.05-12.89c2.7,0,4.8-.79,6.3-2.37,1.5-1.58,2.25-3.8,2.25-6.67v-8.4c0-2.83-.75-5.03-2.25-6.59-1.5-1.56-3.6-2.34-6.3-2.34s-4.74,.78-6.23,2.34c-1.48,1.56-2.22,3.76-2.22,6.59v8.4c0,2.86,.74,5.09,2.22,6.67,1.48,1.58,3.56,2.37,6.23,2.37Z"/>
    <path d="M234.04,52.8v-11.43h24.8v11.43h-24.8Zm18.07,39.5c-4.52,0-7.8-1.16-9.81-3.47-2.02-2.31-3.03-5.63-3.03-9.96V26.62h13.38v48.93c0,1.2,.24,2.15,.73,2.83s1.2,1.03,2.15,1.03h3.32v12.89h-6.74Z"/>
    <path class="cls-1" d="M284.43,21.06V92.05h-13.87V21.06h13.87Z"/>
    <path class="cls-1" d="M290,33.95v-12.89h55.27v12.89h-55.27Zm22.55,58.11V26.87h13.38V92.05h-13.38Z"/>
    <path class="cls-1" d="M71.4,85.59l-45.43,22.3C10.3,97.28,0,79.34,0,59,0,26.42,26.42,0,59,0c7.8,0,15.25,1.52,22.07,4.27L41.13,23.83c-8.59,4.23-14.28,9.45-17.06,15.69-2.79,6.25-2.43,12.97,1.1,20.15l.03,.05c2.19,4.46,4.68,7.65,7.5,9.59,2.81,1.93,5.8,3.01,8.97,3.23,3.16,.22,6.38-.06,9.64-.83,3.26-.79,6.43-1.66,9.52-2.63,.73-.23,1.45-.44,2.16-.65,.92-.26,1.81-.49,2.68-.7,.84-.21,1.68-.39,2.48-.55,2.31-.46,4.37-.43,6.17,.09,1.8,.52,3.23,1.84,4.27,3.96l.03,.05c1.37,2.8,1.18,5.58-.56,8.34-1.36,2.16-3.57,4.15-6.64,5.97Z"/>
    <path class="cls-1" d="M118,59c0,32.58-26.42,59-59,59-5.43,0-10.68-.73-15.68-2.11l34.61-16.99c7.39-4.09,12.4-8.94,15.06-14.56,2.98-6.3,2.73-13-.75-20.09l-.05-.09c-2.04-4.16-4.39-7.19-7.05-9.11-2.66-1.91-5.52-3.04-8.58-3.4-3.06-.34-6.18-.22-9.38,.37-3.19,.58-6.34,1.3-9.43,2.15-.04,0-.06,.01-.09,.02-.5,.14-1,.27-1.5,.39-2.23,.58-4.38,1.07-6.41,1.47-2.52,.5-4.77,.49-6.75-.04-1.97-.54-3.55-1.99-4.71-4.35l-.03-.05c-1.24-2.53-1.04-5.06,.6-7.6,1.62-2.52,4.53-4.82,8.71-6.89L96.24,13.24c13.28,10.82,21.76,27.3,21.76,45.76Z"/>
  </g>
</svg>