<?xml version="1.0" standalone="no"?>
<!DOCTYPE svg PUBLIC "-//W3C//DTD SVG 20010904//EN"
 "http://www.w3.org/TR/2001/REC-SVG-20010904/DTD/svg10.dtd">
<svg version="1.0" xmlns="http://www.w3.org/2000/svg"
 width="700.000000pt" height="700.000000pt" viewBox="0 0 700.000000 700.000000"
 preserveAspectRatio="xMidYMid meet">
<metadata>
Created by potrace 1.14, written by Peter Selinger 2001-2017
</metadata>
<g transform="translate(0.000000,700.000000) scale(0.100000,-0.100000)"
fill="#000000" stroke="none">
<path d="M3278 6996 c-1 -2 -42 -6 -89 -10 -47 -4 -95 -8 -105 -10 -10 -2 -48
-7 -84 -12 -36 -4 -67 -8 -70 -9 -3 -1 -25 -5 -50 -9 -25 -4 -101 -21 -170
-38 -69 -16 -135 -31 -147 -34 -40 -8 -263 -84 -365 -125 -242 -96 -604 -297
-768 -426 -8 -6 -51 -40 -95 -74 -340 -264 -650 -624 -875 -1014 -47 -81 -170
-327 -170 -339 0 -3 -11 -29 -24 -58 -60 -133 -155 -432 -181 -569 -3 -13 -11
-58 -20 -99 -29 -146 -35 -191 -52 -370 -15 -160 -8 -590 12 -711 2 -13 6 -46
10 -74 9 -76 16 -116 25 -160 5 -22 12 -56 15 -75 14 -80 67 -273 108 -395
240 -705 675 -1293 1284 -1734 l72 -52 213 104 c117 58 348 171 513 252 165
81 413 203 550 270 138 67 369 181 515 253 146 71 412 202 592 290 370 182
466 241 588 362 210 208 261 444 143 660 -98 179 -218 244 -443 241 -47 -1
-96 -3 -110 -6 -14 -3 -41 -8 -60 -11 -77 -13 -285 -68 -474 -125 -277 -83
-577 -159 -685 -175 -136 -19 -355 -25 -461 -12 -295 36 -566 203 -751 464
-166 232 -304 556 -334 779 -2 17 -7 48 -10 70 -7 52 -7 207 0 265 49 413 293
778 717 1073 170 118 254 164 738 400 118 57 346 169 505 247 274 135 406 199
965 472 347 170 542 267 548 272 11 12 -219 90 -413 141 -124 33 -249 60 -325
70 -19 3 -46 7 -60 10 -13 2 -52 7 -86 11 -33 3 -74 8 -90 10 -32 5 -540 14
-546 10z"/>
<path d="M5470 6097 c-224 -110 -709 -348 -1145 -562 -126 -62 -365 -179 -530
-260 -165 -81 -410 -201 -545 -267 -449 -220 -544 -269 -640 -333 -267 -177
-396 -367 -385 -568 8 -153 126 -337 257 -401 145 -71 330 -68 658 10 58 14
112 27 120 29 8 2 105 26 215 54 110 27 223 55 250 61 28 7 57 13 65 15 20 5
216 43 255 49 169 30 454 26 614 -8 244 -53 495 -229 655 -460 217 -313 326
-637 321 -948 -2 -108 -6 -146 -20 -217 -79 -403 -380 -781 -860 -1080 -77
-48 -462 -245 -590 -302 -11 -5 -27 -13 -35 -18 -8 -6 -98 -50 -200 -99 -102
-50 -333 -163 -515 -252 -181 -89 -444 -218 -582 -286 -139 -68 -253 -125
-253 -128 0 -13 332 -81 500 -101 250 -31 690 -26 907 9 21 4 54 9 73 11 19 3
46 7 60 10 14 3 41 8 60 11 108 19 311 74 450 121 557 188 1090 542 1480 982
36 41 70 79 75 85 6 6 26 31 45 56 19 25 38 50 43 55 78 97 215 305 289 440
51 93 148 290 148 300 0 2 11 28 24 57 57 127 151 421 182 573 17 81 54 301
59 350 4 33 9 71 11 85 9 48 11 526 3 612 -8 84 -17 171 -24 213 -1 11 -6 43
-10 70 -11 77 -71 341 -99 430 -189 620 -516 1143 -992 1585 -76 71 -149 130
-160 129 -5 0 -110 -50 -234 -112z"/>
</g>
</svg>
